<svg width="14" height="14" viewBox="0 0 14 14" fill="none" xmlns="http://www.w3.org/2000/svg">
<path d="M13.5 5.0625C13.5 5.21168 13.4407 5.35477 13.3352 5.46024C13.2298 5.56571 13.0867 5.625 12.9375 5.625C12.7883 5.625 12.6452 5.56571 12.5398 5.46024C12.4343 5.35477 12.375 5.21168 12.375 5.0625V1.92094L7.71114 6.58547C7.60562 6.69099 7.46246 6.75034 7.31317 6.75034C7.16394 6.75034 7.02079 6.69099 6.91526 6.58547C6.80968 6.47994 6.75039 6.33679 6.75039 6.1875C6.75039 6.03821 6.80968 5.89506 6.91526 5.78953L11.5791 1.125H8.4375C8.28833 1.125 8.14523 1.06573 8.03976 0.960249C7.93429 0.854758 7.875 0.711686 7.875 0.5625C7.875 0.413314 7.93429 0.270242 8.03976 0.164751C8.14523 0.059265 8.28833 0 8.4375 0H12.9375C13.0867 0 13.2298 0.059265 13.3352 0.164751C13.4407 0.270242 13.5 0.413314 13.5 0.5625V5.0625ZM10.6875 6.75C10.5383 6.75 10.3952 6.80929 10.2898 6.91476C10.1843 7.02023 10.125 7.16332 10.125 7.3125V12.375H1.125V3.375H6.1875C6.33668 3.375 6.47977 3.31574 6.58524 3.21025C6.69071 3.10476 6.75 2.96169 6.75 2.8125C6.75 2.66331 6.69071 2.52024 6.58524 2.41475C6.47977 2.30926 6.33668 2.25 6.1875 2.25H1.125C0.826633 2.25 0.540484 2.36852 0.329507 2.57951C0.118524 2.79048 0 3.07663 0 3.375V12.375C0 12.6734 0.118524 12.9595 0.329507 13.1705C0.540484 13.3815 0.826633 13.5 1.125 13.5H10.125C10.4234 13.5 10.7095 13.3815 10.9205 13.1705C11.1315 12.9595 11.25 12.6734 11.25 12.375V7.3125C11.25 7.16332 11.1907 7.02023 11.0852 6.91476C10.9798 6.80929 10.8367 6.75 10.6875 6.75Z" fill="white"/>
</svg>
